<?xml version="1.0" encoding="UTF-8" standalone="no"?>
<svg
   xmlns:dc="http://purl.org/dc/elements/1.1/"
   xmlns:cc="http://creativecommons.org/ns#"
   xmlns:rdf="http://www.w3.org/1999/02/22-rdf-syntax-ns#"
   xmlns:svg="http://www.w3.org/2000/svg"
   xmlns="http://www.w3.org/2000/svg"
   id="svg14"
   version="1.1"
   height="370.95825"
   width="370.95422">
  <metadata
     id="metadata20">
    <rdf:RDF>
      <cc:Work
         rdf:about="">
        <dc:format>image/svg+xml</dc:format>
        <dc:type
           rdf:resource="http://purl.org/dc/dcmitype/StillImage" />
        <dc:title></dc:title>
      </cc:Work>
    </rdf:RDF>
  </metadata>
  <defs
     id="defs18" />
  <path
     id="path2"
     d="M 183.65612,0.00785857 C 135.82656,0.44445857 90.769406,18.930839 56.328917,52.348957 20.767821,86.847659 0.77152862,133.12002 0.02202862,182.6596 c -0.75314,49.5505 17.82784638,96.4159 52.32654838,131.96972 34.495064,35.5611 80.771063,55.55739 130.314283,56.30689 49.53594,0.75314 96.40135,-17.82784 131.96245,-52.32655 35.55745,-34.50598 55.55739,-80.78561 56.30688,-130.31792 C 371.68533,138.7558 353.10435,91.890393 318.60201,56.329297 284.10694,20.768199 237.83095,0.77190857 188.29136,0.02240857 a 189.56458,189.56458 0 0 0 -4.63524,-0.0146 z m 0.0619,6.49443003 a 180.97811,180.97811 0 0 1 4.47516,0.0146 c 47.80046,0.72403 92.46103,20.0181204 125.74817,54.3385484 33.29077,34.309508 51.22777,79.534023 50.5001,127.334483 -0.72767,47.80768 -20.02176,92.46098 -54.33855,125.75176 -34.31314,33.29077 -79.53766,51.22049 -127.34176,50.49646 C 134.95336,363.71775 90.30006,344.41638 57.009286,310.0996 23.72215,275.78645 5.7851526,230.56193 6.5128196,182.76147 7.2404876,134.95738 26.534583,90.30044 60.84773,57.016942 94.094844,24.763089 137.57296,6.9279686 183.71797,6.5022886 Z m 1.7173,56.6743564 c -67.64758,0 -122.484583,54.840635 -122.484583,122.488215 0,67.64395 54.837003,122.48095 122.484583,122.48095 67.64394,0 122.48094,-54.837 122.48094,-122.48095 0,-67.64758 -54.837,-122.488215 -122.48094,-122.488215 z M 35.601317,195.98682 c -2.837902,0 -5.151884,2.31035 -5.151884,5.14097 a 5.1446071,5.1446071 0 1 0 5.151884,-5.14097 z m 300.373743,0 c -2.84154,0 -5.15552,2.31035 -5.15552,5.14097 a 5.1446071,5.1446071 0 1 0 5.15552,-5.14097 z"
     style="fill:#c02827;stroke-width:3.63833594" />
  <path
     id="path4"
     d="m 194.44743,18.032169 -19.92717,0.18192 a 1.6518045,1.6518045 0 0 0 -1.18246,0.50209 1.6590812,1.6590812 0 0 0 -0.47662,1.17882 l 0.25468,27.997 a 1.6627196,1.6627196 0 0 0 1.65908,1.659078 l 19.95264,-0.178278 a 1.6845496,1.6845496 0 0 0 1.65908,-1.68455 l -0.0327,-3.26359 a 1.6772729,1.6772729 0 0 0 -1.67,-1.65544 l -14.87351,0.13826 -0.0546,-5.87955 13.21079,-0.12007 a 1.6663579,1.6663579 0 0 0 1.65181,-1.69183 l -0.0255,-3.25994 a 1.6736346,1.6736346 0 0 0 -1.66636,-1.65545 l -13.23627,0.12007 -0.0437,-5.65762 14.85897,-0.13825 a 1.6445279,1.6445279 0 0 0 1.17518,-0.49482 1.6518045,1.6518045 0 0 0 0.48026,-1.18973 l -0.0255,-3.24904 a 1.6772729,1.6772729 0 0 0 -1.66999,-1.65908 z m 15.18278,1.7646 a 1.6881879,1.6881879 0 0 0 -1.63726,1.29524 1.6117828,1.6117828 0 0 0 0.11643,1.08787 l 7.21846,14.69524 -13.51278,10.4784 a 1.7063796,1.7063796 0 0 0 -0.56758,0.90231 1.7172946,1.7172946 0 0 0 0.22921,1.284333 1.6008678,1.6008678 0 0 0 0.99691,0.731306 l 3.60923,0.833178 a 2.1720866,2.1720866 0 0 0 0.513,0.05821 3.0198189,3.0198189 0 0 0 1.80098,-0.582134 l 9.84534,-7.727823 5.4575,11.271562 a 3.0562022,3.0562022 0 0 0 1.85191,1.484441 l 3.58013,0.825903 0.0182,0.0073 0.0655,0.0073 a 1.6772729,1.6772729 0 0 0 1.9174,-1.277056 1.6408895,1.6408895 0 0 0 -0.14553,-1.135161 26213.436,26213.541 0 0 0 -7.38582,-15.273739 l 5.51571,-4.29323 c 3.48553,-2.7142 7.20391,-5.61032 7.30942,-5.68672 a 1.6590812,1.6590812 0 0 0 0.62216,-0.96052 1.6845496,1.6845496 0 0 0 -1.25523,-2.01564 l -3.4928,-0.81135 a 2.5468352,2.5468352 0 0 0 -0.51301,-0.0546 c -0.65854,0 -1.34618,0.2183 -1.80461,0.56758 l -9.33233,7.27668 -5.22102,-10.64578 a 3.0416489,3.0416489 0 0 0 -1.85555,-1.46988 l -3.57284,-0.82591 a 1.6627196,1.6627196 0 0 0 -0.37111,-0.0437 z m -80.03248,7.83697 a 2.0556598,2.0556598 0 0 0 -0.66946,0.12371 l -2.50681,0.92413 a 2.3649184,2.3649184 0 0 0 -1.4517,1.88466 l -0.45479,5.12642 -2.32853,26.134164 a 1.5717612,1.5717612 0 0 0 0.60396,1.422589 1.6590812,1.6590812 0 0 0 1.0442,0.338365 1.4480577,1.4480577 0 0 0 0.49482,-0.09096 l 3.50008,-1.291609 a 2.3794717,2.3794717 0 0 0 1.45169,-1.895573 l 0.46571,-5.384738 13.7238,-5.07184 3.84936,3.787508 a 2.4376851,2.4376851 0 0 0 1.68819,0.622155 2.1575332,2.1575332 0 0 0 0.65126,-0.120065 l 3.4928,-1.287971 a 1.6299745,1.6299745 0 0 0 1.01146,-1.193374 1.5753995,1.5753995 0 0 0 -0.46207,-1.477165 C 153.48704,49.97676 132.62482,29.562059 131.25317,28.252259 l 0.007,-0.007 a 2.3649184,2.3649184 0 0 0 -1.65908,-0.61124 z m 117.43093,2.00836 a 1.1497142,1.1497142 0 0 0 -0.33109,0.0655 c -0.4657,0.16009 -0.84045,0.60397 -1.25886,1.47717 a 4.0021696,4.0021696 0 0 0 -0.33473,1.01146 c -0.32745,1.81552 0.7022,3.45641 1.58995,4.26413 l -10.07819,20.967725 a 1.7063796,1.7063796 0 0 0 -0.12734,0.407494 1.6336129,1.6336129 0 0 0 0.89503,1.760955 l 3.14716,1.513547 a 1.6008678,1.6008678 0 0 0 1.23704,0.07277 1.6045062,1.6045062 0 0 0 0.92777,-0.836817 l 3.59104,-7.469504 5.43204,2.615964 c 2.97979,1.429866 6.10512,1.910126 8.79749,1.357099 3.13261,-0.647624 5.58121,-2.641432 7.08748,-5.766763 l 0.0364,-0.07277 a 11.027796,11.027796 0 0 0 0.9205,-2.80152 c 0.88048,-4.84626 -1.94651,-9.35052 -7.55318,-12.04289 l -13.13076,-6.30524 a 1.7464013,1.7464013 0 0 0 -0.85137,-0.2183 z m -115.99015,7.68053 7.22209,7.34944 -7.92793,2.92886 z m 121.66959,2.17573 5.44295,2.61232 c 2.73967,1.31708 4.06039,3.09986 3.71111,5.00999 a 4.4023866,4.4023866 0 0 1 -0.35292,1.07331 l -0.0364,0.0728 a 3.594676,3.594676 0 0 1 -2.63415,2.019272 c -1.25886,0.254683 -2.72875,-0.0073 -4.25685,-0.738582 l -5.43932,-2.61233 3.56921,-7.43675 z m -152.955643,5.27558 c -3.387291,0.0619 -6.781858,1.23704 -9.827145,3.40549 l -11.111479,7.895184 c -0.28379,0.200109 -0.625793,0.491176 -0.705837,0.960521 -0.07277,0.48026 0.127342,1.018734 0.684007,1.811891 1.091501,1.539017 2.765136,1.739125 3.660166,1.720933 a 5.1882671,5.1882671 0 0 0 1.564485,-0.26196 l 13.483673,18.955731 a 1.6226979,1.6226979 0 0 0 2.266683,0.378387 l 8.32087,-5.912296 c 7.79696,-5.541186 9.63432,-14.93537 4.37328,-22.339383 l -0.0509,-0.06913 C 109.39041,47.069729 104.777,44.682979 99.748818,44.770299 Z m 182.149653,4.06766 a 1.6518045,1.6518045 0 0 0 -1.34618,0.611243 l -17.80238,21.677206 a 1.6299745,1.6299745 0 0 0 0.2183,2.284875 l 2.70328,2.215746 a 1.6117828,1.6117828 0 0 0 0.97508,0.363834 1.6154212,1.6154212 0 0 0 1.3098,-0.58941 l 5.9887,-7.276672 4.60613,3.783869 -0.41477,12.617749 a 2.9143071,2.9143071 0 0 0 0.98963,2.153895 l 2.91067,2.386749 a 1.6954646,1.6954646 0 0 0 1.02237,0.389302 1.6372512,1.6372512 0 0 0 1.32799,-0.603964 1.7282096,1.7282096 0 0 0 0.38567,-1.018734 l 0.39294,-12.246639 a 12.061084,12.061084 0 0 0 2.73603,0.425685 c 2.11387,0.06913 5.1446,-0.465707 7.57501,-3.427312 l 0.0546,-0.07277 c 1.7937,-2.183002 2.525,-4.729837 2.11023,-7.374907 -0.45843,-2.874286 -2.29215,-5.701273 -5.31197,-8.17898 l -9.44148,-7.749655 a 1.6518045,1.6518045 0 0 0 -0.98963,-0.37111 z M 99.54871,51.53397 c 2.91067,-0.05094 5.59576,1.335269 7.34944,3.809338 l 0.0509,0.06185 c 3.06711,4.315066 1.96834,9.64159 -2.68146,12.952476 l -4.15134,2.947052 -10.522067,-14.808028 4.147703,-2.947052 c 1.808253,-1.280694 3.812976,-1.979255 5.803146,-2.015638 z m 183.1029,6.010531 5.22101,4.289598 c 4.08949,3.354546 3.47461,5.177352 2.48498,6.38528 l -0.0437,0.05457 a 3.0925856,3.0925856 0 0 1 -2.60141,1.193374 c -1.22975,-0.04002 -2.64507,-0.691284 -4.09676,-1.881019 L 278.10729,63.06749 Z M 68.306319,66.170996 a 1.6226979,1.6226979 0 0 0 -1.149714,0.549389 l -2.237577,2.57958 a 1.6045062,1.6045062 0 0 0 -0.39294,1.182459 1.5935912,1.5935912 0 0 0 0.556665,1.113331 L 78.162571,82.947363 54.688027,82.594445 h -0.127341 a 3.0562022,3.0562022 0 0 0 -2.001085,0.949605 l -1.469888,1.699103 a 1.6518045,1.6518045 0 0 0 0.163725,2.292152 l 21.222414,18.417255 a 1.6154212,1.6154212 0 0 0 1.135161,0.39294 1.6117828,1.6117828 0 0 0 1.156991,-0.55303 l 2.233938,-2.57958 a 1.6226979,1.6226979 0 0 0 -0.163725,-2.29215 L 63.605589,89.434516 87.378476,89.794711 h 0.138257 c 0.567581,-0.02547 1.346184,-0.24013 1.800976,-0.767688 l 1.50991,-1.746402 a 1.6518045,1.6518045 0 0 0 -0.163725,-2.31762 L 69.445118,66.560298 A 1.6117828,1.6117828 0 0 0 68.306319,66.170996 Z M 311.93658,76.529338 a 1.6590812,1.6590812 0 0 0 -1.11334,0.349281 l -22.04831,17.245712 a 1.6554429,1.6554429 0 0 0 -0.29107,2.350365 l 12.27575,15.695784 a 1.6736346,1.6736346 0 0 0 2.34309,0.28379 l 2.56866,-2.00836 a 1.6590812,1.6590812 0 0 0 0.28379,-2.34673 l -9.14678,-11.700889 4.62797,-3.616506 8.13896,10.398365 a 1.6772729,1.6772729 0 0 0 2.34672,0.28743 l 2.56867,-2.00836 a 1.6772729,1.6772729 0 0 0 0.29106,-2.34673 l -8.14987,-10.412918 4.46424,-3.478249 9.15405,11.708165 a 1.6663579,1.6663579 0 0 0 1.23704,0.640348 1.6518045,1.6518045 0 0 0 1.10969,-0.356557 l 2.56139,-2.001085 a 1.6372512,1.6372512 0 0 0 0.62943,-1.116969 1.6263362,1.6263362 0 0 0 -0.33836,-1.233396 L 313.16997,77.166047 a 1.6699962,1.6699962 0 0 0 -1.11697,-0.63307 c -0.04,0 -0.08,-0.0073 -0.11642,-0.0036 z m 15.75763,31.675352 a 8.0334459,8.0334459 0 0 0 -3.00891,0.76041 l -0.0691,0.0364 c -4.50063,2.11752 -5.67945,6.26522 -4.07494,14.32049 1.22248,6.11969 0.31654,6.54901 -0.41841,6.89829 a 2.2484916,2.2484916 0 0 1 -1.09878,0.20375 c -1.31707,-0.091 -2.69236,-1.33527 -3.5874,-3.23812 -1.35709,-2.88157 -1.41167,-4.48607 -0.88411,-8.1426 a 1.7136563,1.7136563 0 0 0 -0.14917,-0.95688 1.6954646,1.6954646 0 0 0 -1.26251,-0.95325 l -3.15079,-0.513 a 1.753678,1.753678 0 0 0 -1.96471,1.29161 c -0.0618,0.21466 -1.5281,5.6758 1.43351,11.95921 2.00108,4.25685 5.47206,6.96014 9.27412,7.2221 a 8.706538,8.706538 0 0 0 4.35872,-0.82591 l 0.0728,-0.0364 c 4.32962,-2.03746 5.57393,-6.37072 4.04219,-14.05125 -1.27342,-6.35253 -0.31653,-6.80369 0.45479,-7.16025 a 1.6772729,1.6772729 0 0 1 0.81499,-0.12734 c 1.05148,0.0728 2.52501,0.90959 3.52919,3.03801 a 12.275746,12.275746 0 0 1 1.08058,5.94141 v 0.007 l -0.0109,0.0655 a 1.8118913,1.8118913 0 0 0 0.171,0.91322 1.7827846,1.7827846 0 0 0 1.22612,0.99326 l 3.16535,0.64763 a 1.6663579,1.6663579 0 0 0 1.2625,-0.25469 1.5935912,1.5935912 0 0 0 0.69129,-1.01873 c 0.04,-0.15645 1.02237,-4.38056 -1.61542,-9.98723 -1.91377,-4.06766 -5.45023,-6.76003 -9.22682,-7.02199 a 8.3972795,8.3972795 0 0 0 -1.05512,-0.0109 z m -290.273725,1.27342 a 2.33945,2.33945 0 0 0 -1.629975,0.69856 2.1393416,2.1393416 0 0 0 -0.400217,0.54575 l -1.175182,2.4013 a 2.3576417,2.3576417 0 0 0 0.247407,2.36492 l 3.198097,4.03491 16.314299,20.54569 a 1.5826762,1.5826762 0 0 0 1.426227,0.61851 1.6918262,1.6918262 0 0 0 0.985989,-0.47298 1.5644845,1.5644845 0 0 0 0.298344,-0.41113 l 1.644528,-3.34727 a 2.4013018,2.4013018 0 0 0 -0.258322,-2.37583 l -3.369099,-4.22047 6.450769,-13.1344 5.406568,0.0946 a 2.4231318,2.4231318 0 0 0 1.644528,-0.71675 1.9647014,1.9647014 0 0 0 0.389302,-0.53119 l 1.644527,-3.34364 a 1.6372512,1.6372512 0 0 0 -0.08368,-1.5572 1.5863145,1.5863145 0 0 0 -1.353461,-0.75314 c -0.30562,0 -29.485075,-0.42568 -31.380648,-0.4366 z m 6.094213,6.73092 10.29649,0.35656 -3.729294,7.57865 z m -10.187341,19.19222 a 9.9435723,9.9435723 0 0 0 -0.724029,0.0182 c -4.911754,0.29107 -8.622856,4.10041 -9.918104,10.1837 l -3.023457,14.25137 c -0.07277,0.342 -0.127342,0.78224 0.13098,1.18246 0.269237,0.41113 0.78588,0.67309 1.731848,0.8732 a 3.8493595,3.8493595 0 0 0 1.062394,0.0837 c 1.840998,-0.10915 3.194459,-1.49536 3.765678,-2.55047 l 22.754153,4.83898 a 1.6263362,1.6263362 0 0 0 1.928318,-1.25522 l 0.727667,-3.41276 a 1.6226979,1.6226979 0 0 0 -1.255226,-1.92832 l -8.106212,-1.72457 1.255226,-5.89774 c 0.691284,-3.23085 0.418408,-6.38164 -0.756774,-8.86663 -1.364376,-2.89248 -3.882105,-4.8026 -7.276672,-5.53027 l -0.08004,-0.0109 a 11.497142,11.497142 0 0 0 -2.219385,-0.25468 z m 306.340613,3.59832 a 8.3281511,8.3281511 0 0 0 -2.05202,0.16736 l -0.0655,0.0145 c -4.87537,1.04784 -6.96377,4.81352 -7.23301,13.02888 -0.20375,6.23247 -1.18974,6.44714 -1.98289,6.6145 a 2.1720866,2.1720866 0 0 1 -0.56031,0.0473 c -1.49899,-0.0619 -2.79788,-1.66272 -3.31088,-4.06766 -0.66218,-3.11442 -0.35292,-4.68618 0.98962,-8.13532 a 1.6881879,1.6881879 0 0 0 -0.93505,-2.17209 l -2.95433,-1.21884 a 1.7464013,1.7464013 0 0 0 -0.57122,-0.12007 1.7354863,1.7354863 0 0 0 -1.63361,0.92414 c -0.10915,0.20011 -2.77605,5.18827 -1.33163,11.98104 1.19337,5.58121 4.94814,9.31414 9.55427,9.51789 a 8.9503066,8.9503066 0 0 0 2.27032,-0.19283 l 0.08,-0.0145 c 4.67526,-1.00054 6.87645,-4.93359 7.13113,-12.76328 0.21467,-6.47624 1.24068,-6.69454 2.07386,-6.87282 a 1.1533525,1.1533525 0 0 1 0.33108,-0.0218 c 1.17519,0.0509 2.6851,1.27342 3.23448,3.84936 a 12.348512,12.348512 0 0 1 -0.29828,6.02872 l -0.0291,0.0728 a 1.8228063,1.8228063 0 0 0 -0.04,0.9205 1.7609546,1.7609546 0 0 0 0.96416,1.24431 l 2.94342,1.35347 a 1.6736346,1.6736346 0 0 0 0.62943,0.14917 1.6299745,1.6299745 0 0 0 1.56084,-0.94233 c 0.19647,-0.40022 1.96107,-4.18409 0.69856,-10.09275 -1.12788,-5.27922 -5.0209,-9.10675 -9.45967,-9.29958 z m -306.529807,3.1799 a 4.2059164,4.2059164 0 0 1 1.120608,0.0982 l 0.07277,0.0145 c 1.175183,0.24741 2.073852,0.9678 2.594134,2.08477 0.542112,1.16426 0.636709,2.64871 0.28379,4.31143 l -1.251587,5.90138 -8.073468,-1.71002 1.255226,-5.90138 c 0.63307,-2.97616 2.052022,-4.6789 3.994893,-4.79897 z"
     style="fill:#1a1b21;stroke-width:3.63833594" />
  <path
     id="path6"
     d="m 48.099001,235.10985 c -1.782785,0 -3.543739,0.37839 -5.235566,1.11333 -6.523536,2.84882 -9.321416,9.85262 -6.516259,16.28883 0.10915,0.24377 0.214661,0.48026 0.32745,0.70584 l 0.116427,0.2183 c 0.07277,0.15281 0.145533,0.30562 0.236491,0.45115 l 0.138257,0.24013 0.163725,0.28743 0.0473,0.08 0.167363,0.2474 c 0.07277,0.12007 0.149172,0.2365 0.225577,0.34565 l 0.171002,0.24013 a 9.1867984,9.1867984 0 0 0 0.236492,0.31289 l 0.171001,0.21466 0.247407,0.29107 0.185555,0.20739 0.280152,0.29106 0.160087,0.16009 c 0.10915,0.10915 0.207385,0.19283 0.309259,0.29107 l 0.15281,0.13462 c 0.32745,0.28379 0.658539,0.54575 0.985989,0.77132 l 0.156448,0.10915 0.352919,0.22922 0.15281,0.0873 0.407494,0.2474 h 0.0036 l 0.181917,0.0982 0.134618,0.0655 0.207385,0.10915 0.221939,0.10915 0.254683,0.1237 0.07277,0.0364 0.403855,0.171 a 1.7609546,1.7609546 0 0 0 0.665816,0.13462 1.8264447,1.8264447 0 0 0 1.677273,-1.14972 l 0.607602,-1.50991 a 1.8882964,1.8882964 0 0 0 -0.935053,-2.38311 14.742537,14.742537 0 0 1 -0.713113,-0.37475 L 44.355119,254 a 6.84371,6.84371 0 0 1 -0.48026,-0.29834 l -0.127342,-0.0873 -0.10915,-0.0764 a 5.0754787,5.0754787 0 0 1 -0.363834,-0.28015 l -0.221938,-0.19283 c -0.10915,-0.0982 -0.2183,-0.19647 -0.320174,-0.30198 a 4.9736053,4.9736053 0 0 1 -0.494813,-0.56394 l -0.07641,-0.091 -0.0473,-0.0618 -0.07277,-0.091 a 9.3432468,9.3432468 0 0 1 -0.280151,-0.4366 l -0.06913,-0.10915 -0.06549,-0.11279 a 8.1680643,8.1680643 0 0 1 -0.385663,-0.77497 6.345258,6.345258 0 0 1 0.02547,-5.20282 c 0.74222,-1.65908 2.157533,-3.01254 3.976701,-3.80934 a 7.9643175,7.9643175 0 0 1 3.194459,-0.68764 c 2.736029,0 5.006351,1.46261 6.072383,3.91121 0.101873,0.23285 0.19647,0.47298 0.28379,0.75314 l 0.03274,0.1237 0.02911,0.10915 a 6.399833,6.399833 0 0 1 0.156448,0.69128 l 0.01091,0.0764 0.06549,0.46935 0.01455,0.28015 c 0.01091,0.15645 0.01091,0.3129 0.01091,0.52392 v 0.0873 l -0.0073,0.1237 a 5.3629073,5.3629073 0 0 1 -0.04002,0.47663 l -0.02911,0.27651 a 7.7496557,7.7496557 0 0 1 -0.10915,0.60397 l -0.01819,0.13826 a 11.613569,11.613569 0 0 1 -0.178279,0.7022 1.819168,1.819168 0 0 0 1.189736,2.24849 l 1.808253,0.56394 a 1.8664664,1.8664664 0 0 0 2.306705,-1.22248 12.927008,12.927008 0 0 0 0.232854,-0.88776 l 0.03638,-0.15644 a 13.680143,13.680143 0 0 0 0.167364,-0.90959 l 0.02183,-0.14553 c 0.03638,-0.32745 0.06913,-0.64035 0.08368,-0.96417 l 0.0073,-0.0873 a 11.358885,11.358885 0 0 0 0,-0.99326 l -0.0073,-0.0873 a 12.093829,12.093829 0 0 0 -0.0946,-1.02601 l -0.02911,-0.16737 a 10.874986,10.874986 0 0 0 -0.203747,-1.04784 l -0.04366,-0.18192 a 15.226436,15.226436 0 0 0 -0.316535,-1.0915 l -0.06549,-0.171 a 14.771644,14.771644 0 0 0 -0.465707,-1.19337 c -2.022915,-4.64616 -6.34162,-7.535 -11.264288,-7.535 z m 269.629809,0.10187 a 1.8446364,1.8446364 0 0 0 -1.67364,1.04057 l -0.80407,1.72821 a 1.8009763,1.8009763 0 0 0 -0.0546,1.39712 1.775508,1.775508 0 0 0 0.9387,1.01873 l 11.1333,5.17736 -16.01959,3.65289 a 3.1035006,3.1035006 0 0 0 -1.95742,1.58267 l -0.70948,1.52083 a 1.8009763,1.8009763 0 0 0 -0.0582,1.38984 1.797338,1.797338 0 0 0 0.94596,1.01874 l 18.70833,8.69562 a 1.808253,1.808253 0 0 0 2.41585,-0.8732 l 0.80407,-1.73549 a 1.797338,1.797338 0 0 0 0.0546,-1.38984 1.808253,1.808253 0 0 0 -0.93869,-1.01874 l -11.54808,-5.36654 16.5799,-3.78387 a 3.128969,3.128969 0 0 0 1.95742,-1.58632 l 0.56031,-1.19337 a 1.8118913,1.8118913 0 0 0 0.0618,-1.38621 1.797338,1.797338 0 0 0 -0.93869,-1.02601 l -18.71924,-8.69926 a 1.7100179,1.7100179 0 0 0 -0.73858,-0.16736 z m -252.85708,21.4298 a 1.786423,1.786423 0 0 0 -1.007819,0.30199 l -17.023774,11.67178 a 1.8228063,1.8228063 0 0 0 -0.465707,2.53228 l 1.116969,1.6227 a 1.8228063,1.8228063 0 0 0 1.513548,0.7786 c 0.37111,0 0.716752,-0.10915 1.011457,-0.30926 l 6.374365,-4.37328 5.188267,7.56774 -6.374365,4.37692 a 1.819168,1.819168 0 0 0 -0.465707,2.52501 l 1.113331,1.62269 a 1.808253,1.808253 0 0 0 2.525005,0.46571 l 17.016498,-11.6645 a 1.7936996,1.7936996 0 0 0 0.760412,-1.16427 1.797338,1.797338 0 0 0 -0.28379,-1.3571 l -1.11697,-1.62634 a 1.830083,1.830083 0 0 0 -1.517186,-0.78224 1.7827846,1.7827846 0 0 0 -1.011457,0.30562 l -6.265215,4.29324 -5.191905,-7.5641 6.265214,-4.29324 a 1.830083,1.830083 0 0 0 0.472984,-2.53228 l -1.116969,-1.6227 a 1.8264447,1.8264447 0 0 0 -1.513548,-0.7786 z m 240.35575,3.04529 a 1.8228063,1.8228063 0 0 0 -1.49171,0.74222 l -8.61558,12.00651 a 1.819168,1.819168 0 0 0 0.41113,2.53592 l 16.76181,12.02834 a 1.786423,1.786423 0 0 0 1.0624,0.34564 1.8155297,1.8155297 0 0 0 1.47352,-0.75677 l 8.71382,-12.13749 a 1.7827846,1.7827846 0 0 0 0.31289,-1.3571 1.797338,1.797338 0 0 0 -0.72766,-1.17518 l -1.25887,-0.90595 a 1.775508,1.775508 0 0 0 -1.0442,-0.32745 1.830083,1.830083 0 0 0 -1.49172,0.74222 l -6.50534,9.05946 -3.62015,-2.59777 5.56302,-7.74602 a 1.8155297,1.8155297 0 0 0 -0.41841,-2.53228 l -1.25886,-0.90959 a 1.764593,1.764593 0 0 0 -1.04057,-0.32745 1.8337213,1.8337213 0 0 0 -1.49172,0.74222 l -5.56301,7.7533 -2.96888,-2.13571 -0.0109,-0.39294 h -0.45115 l 6.38164,-8.89209 a 1.819168,1.819168 0 0 0 -0.41841,-2.52864 l -1.25886,-0.90595 a 1.7718696,1.7718696 0 0 0 -1.04421,-0.32745 z M 81.797269,278.91542 a 1.8155297,1.8155297 0 0 0 -1.229758,0.4657 l -15.142754,14.01124 a 1.8228063,1.8228063 0 0 0 -0.101873,2.5723 l 1.338907,1.44442 a 1.819168,1.819168 0 0 0 2.565027,0.10187 l 15.15367,-14.00759 a 1.8155297,1.8155297 0 0 0 0.0946,-2.57594 L 83.139819,279.483 a 1.819168,1.819168 0 0 0 -1.335269,-0.56758 z m 207.730791,1.00782 a 1.797338,1.797338 0 0 0 -1.26614,0.50573 l -1.41895,1.36801 a 1.819168,1.819168 0 0 0 -0.54575,1.28433 1.786423,1.786423 0 0 0 0.51665,1.28797 l 5.29377,5.44659 -6.58538,6.40347 -5.29014,-5.44659 a 1.830083,1.830083 0 0 0 -1.30981,-0.53847 1.797338,1.797338 0 0 0 -1.2625,0.50209 l -1.41167,1.37165 a 1.819168,1.819168 0 0 0 -0.0364,2.57231 l 14.38598,14.79711 a 1.8046147,1.8046147 0 0 0 1.30253,0.54575 1.830083,1.830083 0 0 0 1.26614,-0.50937 l 1.41167,-1.37893 a 1.8009763,1.8009763 0 0 0 0.54939,-1.27341 1.7936996,1.7936996 0 0 0 -0.51664,-1.29525 l -5.37746,-5.53755 6.57811,-6.40347 5.38474,5.54119 a 1.8155297,1.8155297 0 0 0 2.5723,0.0364 l 1.40804,-1.37165 a 1.8155297,1.8155297 0 0 0 0.04,-2.56867 L 290.8342,280.46537 a 1.8228063,1.8228063 0 0 0 -1.3098,-0.53847 z m -198.591291,8.48823 a 1.8446364,1.8446364 0 0 0 -1.429866,0.66946 L 76.59081,305.17329 a 1.8155297,1.8155297 0 0 0 0.28379,2.55047 l 1.480803,1.18974 a 1.7900613,1.7900613 0 0 0 1.127884,0.3893 1.840998,1.840998 0 0 0 1.429866,-0.66945 l 7.967956,-9.92902 -0.291067,17.00194 a 3.1362456,3.1362456 0 0 0 1.069671,2.28488 l 1.033287,0.8259 a 1.8228063,1.8228063 0 0 0 1.1388,0.40022 1.797338,1.797338 0 0 0 1.415312,-0.68037 L 106.1632,302.44818 a 1.797338,1.797338 0 0 0 0.38567,-1.33527 1.797338,1.797338 0 0 0 -0.66582,-1.21885 l -1.48808,-1.19337 a 1.7682313,1.7682313 0 0 0 -1.1206,-0.38566 1.8228063,1.8228063 0 0 0 -1.42987,0.66945 l -7.684166,9.56882 0.283791,-16.41981 a 3.1362456,3.1362456 0 0 0 -1.07331,-2.28487 l -1.3098,-1.04784 a 1.786423,1.786423 0 0 0 -1.127884,-0.38931 z m 178.966111,10.66033 -0.69128,0.0218 -0.17828,0.0146 -0.21103,0.0218 -0.19283,0.0182 a 10.394726,10.394726 0 0 0 -0.58577,0.08 c -0.18556,0.0255 -0.36383,0.0691 -0.55303,0.10187 l -0.23285,0.0582 -0.21102,0.0473 -0.19284,0.0546 -0.23649,0.0728 -0.0837,0.0255 a 4.4278549,4.4278549 0 0 0 -0.27651,0.0837 1.5644845,1.5644845 0 0 0 -0.12734,0.04 l -0.10916,0.04 a 8.0952976,8.0952976 0 0 0 -0.38202,0.14553 l -0.18192,0.0728 -0.0728,0.0255 a 8.2699377,8.2699377 0 0 0 -0.36384,0.16008 l -0.25832,0.12007 -0.28743,0.13826 -0.0982,0.0473 -0.24377,0.12371 -0.34928,0.19283 -0.0728,0.0473 -0.21102,0.11279 a 20.214595,20.214595 0 0 0 -0.66218,0.41113 c -2.92522,1.89557 -4.88992,4.73347 -5.52663,7.98978 -0.6258,3.17263 0.0437,6.48716 1.88466,9.33597 2.36492,3.63834 6.2543,5.81043 10.39836,5.81043 2.35764,0 4.68982,-0.70584 6.74184,-2.03747 0.22557,-0.14554 0.44024,-0.29107 0.64398,-0.4366 l 0.20739,-0.15645 0.38202,-0.29107 0.23286,-0.18919 0.15281,-0.12734 0.17828,-0.14917 0.2183,-0.20011 a 7.2257353,7.2257353 0 0 0 0.2947,-0.28379 c 0.0873,-0.08 0.14917,-0.13826 0.21102,-0.20375 l 0.10188,-0.10551 0.16372,-0.17464 0.1892,-0.21103 a 6.5126214,6.5126214 0 0 0 0.21102,-0.25468 l 0.20375,-0.24377 0.12734,-0.16736 0.14553,-0.19283 0.10915,-0.16009 c 0.0655,-0.091 0.12734,-0.18192 0.18556,-0.28015 l 0.0837,-0.1237 0.0728,-0.11643 a 1.7245713,1.7245713 0 0 0 0.091,-0.14554 l 0.0473,-0.0728 0.18192,-0.33109 c 0.0982,-0.18192 0.19283,-0.36383 0.28379,-0.55667 l 0.0764,-0.17464 0.0437,-0.0909 0.13098,-0.29835 0.08,-0.2183 0.13825,-0.34928 0.0837,-0.23285 0.04,-0.13098 0.0728,-0.21103 0.0728,-0.25468 a 8.3063211,8.3063211 0 0 0 0.10187,-0.35656 l 0.10916,-0.4184 a 1.8118913,1.8118913 0 0 0 -1.38985,-2.15026 l -1.58995,-0.34928 a 1.9101264,1.9101264 0 0 0 -2.2012,1.31344 13.07618,13.07618 0 0 1 -0.2474,0.75677 l -0.08,0.19647 a 7.211182,7.211182 0 0 1 -0.21466,0.52392 l -0.1237,0.24741 -0.0327,0.0582 a 5.5302707,5.5302707 0 0 1 -0.18191,0.35292 l -0.13098,0.21102 a 5.7558476,5.7558476 0 0 1 -0.27652,0.41841 l -0.17827,0.23286 a 7.1784369,7.1784369 0 0 1 -0.34201,0.39294 3.4746109,3.4746109 0 0 1 -0.14553,0.16008 7.0947552,7.0947552 0 0 1 -0.39294,0.35292 l -0.10915,0.0982 -0.0728,0.0618 a 8.8375181,8.8375181 0 0 1 -0.71675,0.52392 6.367088,6.367088 0 0 1 -3.47461,1.05148 c -2.3722,0 -4.64252,-1.32072 -6.07602,-3.52919 -1.08787,-1.67363 -1.51355,-3.57648 -1.20065,-5.37018 0.30925,-1.77551 1.33163,-3.29997 2.867,-4.30051 0.22922,-0.14554 0.4548,-0.27652 0.68765,-0.40022 l 0.0582,-0.0255 h 0.0109 l 0.0655,-0.0291 0.10551,-0.0473 c 0.14553,-0.0655 0.30562,-0.13826 0.46571,-0.20011 l 0.0618,-0.0218 0.13098,-0.0437 0.0764,-0.0291 c 0.13826,-0.0473 0.29107,-0.091 0.44024,-0.13826 l 0.15645,-0.0364 0.12007,-0.0255 c 0.13825,-0.0291 0.29106,-0.0582 0.4366,-0.08 l 0.08,-0.0146 0.19647,-0.0291 a 5.8286143,5.8286143 0 0 1 0.47662,-0.0364 l 0.13098,-0.0145 0.12734,-0.007 a 7.7496557,7.7496557 0 0 1 0.62216,0.007 h 0.16009 a 12.927008,12.927008 0 0 1 0.71311,0.0582 1.808253,1.808253 0 0 0 2.02655,-1.54265 l 0.26196,-1.87374 a 1.830083,1.830083 0 0 0 -1.52082,-2.06658 l -0.30562,-0.0364 a 6.4180247,6.4180247 0 0 0 -0.34928,-0.0327 l -0.76769,-0.0509 c -0.1237,-0.007 -0.23649,-0.007 -0.34564,-0.007 z m -156.07734,6.17789 a 1.8482747,1.8482747 0 0 0 -1.6227,0.96416 l -9.68525,18.21715 a 1.808253,1.808253 0 0 0 -0.13462,1.38257 1.8155297,1.8155297 0 0 0 0.88412,1.07695 l 13.19624,7.00743 a 1.797338,1.797338 0 0 0 2.45588,-0.75313 l 0.72767,-1.36074 a 1.8264447,1.8264447 0 0 0 -0.7495,-2.45952 l -9.85261,-5.23556 2.09204,-3.93668 8.42275,4.47515 a 1.7609546,1.7609546 0 0 0 0.83318,0.20739 1.862828,1.862828 0 0 0 1.62633,-0.95689 l 0.72767,-1.36437 a 1.808253,1.808253 0 0 0 0.12734,-1.38257 1.797338,1.797338 0 0 0 -0.88048,-1.07331 l -8.42638,-4.47515 2.00108,-3.77296 9.71436,5.16644 a 1.819168,1.819168 0 0 0 2.45588,-0.75677 l 0.72766,-1.36802 a 1.8155297,1.8155297 0 0 0 -0.76041,-2.45951 l -13.04707,-6.93467 a 1.775508,1.775508 0 0 0 -0.83318,-0.20739 z m 135.09142,5.14461 a 1.7900613,1.7900613 0 0 0 -0.69129,0.13826 l -15.05179,6.43621 a 1.8009763,1.8009763 0 0 0 -0.97144,0.99327 1.808253,1.808253 0 0 0 0.0182,1.39348 l 0.65854,1.53902 a 1.8555514,1.8555514 0 0 0 1.68819,1.09878 1.775508,1.775508 0 0 0 0.69492,-0.13462 l 4.60977,-1.97198 0.17464,-0.007 0.21103,-0.007 6.68362,15.62665 a 1.808253,1.808253 0 0 0 1.66636,1.09878 1.753678,1.753678 0 0 0 0.71675,-0.14554 l 1.83736,-0.78588 a 1.8046147,1.8046147 0 0 0 0.96052,-2.38675 l -6.74184,-15.76127 4.93359,-2.11023 a 1.8264447,1.8264447 0 0 0 0.95324,-2.37947 l -0.65854,-1.5463 a 1.8555514,1.8555514 0 0 0 -1.69182,-1.0915 z m -109.73222,6.68362 c -3.4455,0 -6.10513,1.85192 -7.11294,4.94814 -1.45534,4.43877 0.98962,7.02199 5.40292,9.73983 3.67109,2.20847 3.74021,3.00526 3.42368,3.96578 -0.33837,1.04057 -1.29889,1.25523 -2.04475,1.25523 -0.50209,0 -1.05511,-0.0982 -1.63725,-0.29107 a 9.8307839,9.8307839 0 0 1 -0.84045,-0.31653 5.5557391,5.5557391 0 0 0 -0.15281,-0.0728 l -0.0982,-0.0473 a 8.6228563,8.6228563 0 0 1 -0.51665,-0.26196 8.8193265,8.8193265 0 0 1 -0.27651,-0.16009 8.9211999,8.9211999 0 0 1 -0.42205,-0.27651 c -0.0837,-0.0546 -0.15281,-0.10915 -0.2183,-0.15645 l -0.0582,-0.0437 a 8.4991529,8.4991529 0 0 1 -0.38202,-0.30555 8.9866899,8.9866899 0 0 1 -0.22922,-0.19283 10.642133,10.642133 0 0 1 -0.42568,-0.42205 7.4767805,7.4767805 0 0 1 -0.19647,-0.19283 18.992114,18.992114 0 0 1 -0.35656,-0.42205 l -0.0837,-0.0982 a 23.459991,23.459991 0 0 1 -0.53847,-0.71311 l -0.13462,-0.18192 a 1.8919347,1.8919347 0 0 0 -1.54993,-0.80043 1.775508,1.775508 0 0 0 -0.93505,0.26196 l -1.45534,0.89866 a 1.797338,1.797338 0 0 0 -0.65854,2.35037 l 0.091,0.15281 0.11279,0.17828 0.19283,0.26196 0.0655,0.0837 0.0691,0.10187 a 10.442024,10.442024 0 0 0 0.71312,0.88412 l 0.13462,0.15281 a 13.232628,13.232628 0 0 0 0.92413,0.94597 c 0.18192,0.171 0.37111,0.342 0.56395,0.50209 l 0.4184,0.342 c 0.20375,0.16009 0.4075,0.30198 0.61124,0.44752 l 0.0691,0.0437 0.0509,0.0364 a 9.9217423,9.9217423 0 0 0 1.00055,0.62579 l 0.10915,0.0691 0.31653,0.17828 c 0.26196,0.13826 0.52392,0.25468 0.77497,0.37475 l 0.14189,0.0728 0.13462,0.0582 0.11643,0.0509 c 0.44751,0.18919 0.84409,0.33836 1.22612,0.46206 1.25886,0.41114 2.48862,0.61852 3.64925,0.61852 3.50372,0 6.11968,-1.85555 7.1748,-5.09003 1.20065,-3.67836 -0.34928,-6.53445 -5.19555,-9.53244 -3.96214,-2.43041 -3.96578,-3.15808 -3.64197,-4.14043 0.24741,-0.7495 0.92414,-1.16427 1.92104,-1.16427 0.43296,0 0.90958,0.0837 1.39712,0.24741 a 8.0152542,8.0152542 0 0 1 0.61852,0.23285 0.5857721,0.5857721 0 0 1 0.08,0.0437 l 0.10915,0.0473 c 0.14189,0.0655 0.27651,0.13462 0.40385,0.20011 l 0.2183,0.12371 c 0.12371,0.0728 0.24377,0.14553 0.3602,0.22557 l 0.10187,0.0691 0.13826,0.0946 c 0.0982,0.0728 0.2183,0.15645 0.33473,0.25468 0.08,0.0582 0.14553,0.11279 0.21102,0.16736 0.12007,0.0946 0.23649,0.19647 0.34564,0.30199 l 0.21103,0.18919 c 0.12734,0.12006 0.26196,0.2656 0.40021,0.41113 l 0.12734,0.13462 c 0.15645,0.16736 0.31654,0.36383 0.47663,0.5603 a 1.8555514,1.8555514 0 0 0 1.45533,0.7022 1.797338,1.797338 0 0 0 1.07695,-0.35655 l 1.34618,-1.00055 a 1.840998,1.840998 0 0 0 0.44024,-2.4959 l -0.0691,-0.0909 c -0.0546,-0.0728 -0.10187,-0.12371 -0.14553,-0.17828 l -0.0618,-0.08 a 22.266616,22.266616 0 0 0 -0.4839,-0.58213 12.388534,12.388534 0 0 0 -0.2183,-0.22558 l -0.0691,-0.0728 a 16.692686,16.692686 0 0 0 -0.47299,-0.48026 l -0.24376,-0.22558 -0.08,-0.0691 a 12.996136,12.996136 0 0 0 -0.49482,-0.41841 l -0.0837,-0.0618 -0.2656,-0.21102 h -0.0109 l -0.0509,-0.0364 a 12.00287,12.00287 0 0 0 -0.49481,-0.34564 10.252831,10.252831 0 0 0 -0.97507,-0.58941 l -0.0728,-0.0437 a 10.918646,10.918646 0 0 0 -1.02602,-0.50209 l -0.10915,-0.0473 -0.0982,-0.0437 -0.1237,-0.0546 a 16.143297,16.143297 0 0 0 -1.1388,-0.42205 10.653048,10.653048 0 0 0 -3.31088,-0.54939 z m 85.90475,2.34673 a 1.786423,1.786423 0 0 0 -0.47298,0.0655 l -1.90285,0.53484 a 1.797338,1.797338 0 0 0 -1.0915,0.85864 1.808253,1.808253 0 0 0 -0.16372,1.38257 l 5.57393,19.86532 a 1.819168,1.819168 0 0 0 2.23393,1.26614 l 1.89922,-0.53848 a 1.8228063,1.8228063 0 0 0 1.25886,-2.24121 l -5.57393,-19.86532 a 1.830083,1.830083 0 0 0 -1.76096,-1.32435 z m -66.3778,3.01618 a 1.8264447,1.8264447 0 0 0 -1.79734,1.54993 l -2.96888,20.41834 a 1.775508,1.775508 0 0 0 0.342,1.34619 1.819168,1.819168 0 0 0 1.18974,0.71675 l 14.7862,2.14662 a 1.8228063,1.8228063 0 0 0 2.0593,-1.53538 l 0.22193,-1.53174 a 1.7900613,1.7900613 0 0 0 -0.342,-1.34618 1.808253,1.808253 0 0 0 -1.18973,-0.71675 l -11.03872,-1.60087 0.64035,-4.4133 9.43421,1.37529 a 1.8337213,1.8337213 0 0 0 2.06293,-1.5281 l 0.22194,-1.54266 a 1.8155297,1.8155297 0 0 0 -1.53538,-2.0593 l -9.44148,-1.37165 0.61852,-4.22047 10.87499,1.58268 a 1.830083,1.830083 0 0 0 2.06293,-1.53538 l 0.2183,-1.53538 a 1.797338,1.797338 0 0 0 -1.53901,-2.05566 l -14.62248,-2.12479 a 2.1102349,2.1102349 0 0 0 -0.26196,-0.0182 z m 54.42951,0.11643 -0.0364,0.007 -0.0728,0.004 -1.76823,0.23286 a 3.4928026,3.4928026 0 0 0 -2.13571,1.27341 l -7.40765,10.23101 -1.0915,-8.26994 a 1.8264447,1.8264447 0 0 0 -1.79734,-1.58268 2.3867484,2.3867484 0 0 0 -0.24377,0.0145 l -1.95014,0.25833 a 1.808253,1.808253 0 0 0 -1.20065,0.69856 1.797338,1.797338 0 0 0 -0.35656,1.34254 l 2.69237,20.462 a 1.819168,1.819168 0 0 0 2.05566,1.55721 l 1.93923,-0.25468 a 1.8009763,1.8009763 0 0 0 1.20065,-0.69856 1.7900613,1.7900613 0 0 0 0.3602,-1.34255 l -0.68401,-5.18463 2.25941,-3.03073 7.62595,7.706 a 3.128969,3.128969 0 0 0 2.37219,0.82226 l 1.96471,-0.25832 a 1.0005424,1.0005424 0 0 0 0.30562,-0.0873 1.6954646,1.6954646 0 0 0 1.20065,-1.6227 1.7282096,1.7282096 0 0 0 -0.44752,-1.16427 l -9.69616,-9.76893 6.35253,-8.58647 a 0.77132723,0.77132723 0 0 0 0.10187,-0.18192 1.6518045,1.6518045 0 0 0 0.24741,-0.85501 1.7172946,1.7172946 0 0 0 -1.71729,-1.71366 z"
     style="fill:#1a1b21;stroke-width:3.63833594" />
  <path
     id="path8"
     d="m 175.64451,101.75756 a 63.136045,63.136045 0 0 0 -3.28542,0.0728 61.960862,61.960862 0 0 0 -20.30919,4.47515 c -0.0546,0.0255 -0.12371,0.0364 -0.17464,0.0655 a 62.153694,62.153694 0 0 0 -21.76453,14.98995 l -0.0364,0.0364 a 61.691625,61.691625 0 0 0 -9.32141,12.91609 c -0.08,0.14553 -0.17101,0.29834 -0.25469,0.45843 a 1.3570993,1.3570993 0 0 0 -0.0728,0.16373 c -1.20429,2.43768 -7.16752,15.23007 -7.10931,31.99188 0,0 -0.4184,11.06782 6.75276,23.67829 a 48.637276,48.637276 0 0 0 4.07857,6.26522 c 0.28015,0.37111 0.57122,0.73858 0.86229,1.0915 a 32.741386,32.741386 0 0 0 0.8732,1.02965 0.50209037,0.50209037 0 0 0 0.0764,0.10187 l 0.82954,0.92778 0.16008,0.17828 c 0.25469,0.28015 0.51665,0.54211 0.78225,0.81498 5.10094,5.46842 11.66086,8.85571 18.43544,15.27374 0.77133,0.75313 1.56449,1.53901 2.31762,2.20483 1.60815,1.32799 2.41222,1.97198 4.31871,3.00527 a 0.15281011,0.15281011 0 0 0 0.0509,0.0327 l 0.007,0.007 v 0.007 c 0.10915,0.0509 0.21466,0.11642 0.32381,0.16372 a 25.992272,25.992272 0 0 0 3.10714,1.38984 33.996612,33.996612 0 0 0 12.39217,2.15754 c 10.43111,0 19.07944,-5.01363 27.72048,-9.80168 a 251.75466,251.75466 0 0 1 8.88482,-4.6316 c 2.10296,-1.01874 4.36237,-2.1357 5.76676,-2.89612 l 3.76204,-2.23393 c 24.95896,-15.14645 22.68864,-43.35083 22.68864,-43.35083 -0.61852,-33.56729 -28.02247,-60.58557 -61.73893,-60.58557 z m 67.24736,24.1913 c -1.28069,3.03073 -3.21265,6.14878 -5.92321,9.29958 6.1779,7.05837 11.1988,14.54607 14.88443,23.72195 5.42113,13.52006 7.85881,29.19765 7.96796,43.72189 0,0 -0.0655,2.75058 5.20282,2.83426 2.31762,-0.0437 4.34417,-1.24431 5.1155,-1.76459 4.08949,-2.85973 7.84062,-8.77567 7.89155,-18.61373 v -0.15645 c 0,-0.42932 -0.0145,-0.85137 -0.0218,-1.27342 -0.32745,-13.5819 -5.54118,-24.50783 -8.46641,-29.59422 a 40.079909,40.079909 0 0 0 -2.09571,-3.3218 114.81497,114.81497 0 0 0 -24.55877,-24.85711 z"
     style="fill:#ffffff;stroke-width:3.63833594" />
  <path
     id="path10"
     d="m 132.59935,92.741764 c -16.38342,0.229215 -34.978958,19.548776 -12.19934,42.211976 l 0.0255,-0.0182 a 1.2297576,1.2297576 0 0 1 0.0728,-0.16737 c 0.0837,-0.16008 0.17101,-0.30562 0.25469,-0.45479 a 61.70254,61.70254 0 0 1 9.32505,-12.91609 l 0.0327,-0.04 a 62.164609,62.164609 0 0 1 21.76453,-14.98995 c 0.0509,-0.0255 0.12006,-0.04 0.17828,-0.0618 l 0.007,-0.0145 c -2.61597,-5.80678 -7.93521,-12.097465 -16.22698,-13.338138 a 19.923528,19.923528 0 0 0 -3.23448,-0.2183 z m 88.83362,1.098777 a 20.250978,20.250978 0 0 0 -2.76514,0.127342 c -6.45077,0.753135 -13.48003,6.374367 -18.02068,13.010687 21.37887,9.41238 36.40156,30.60932 36.86362,55.3682 0,0 2.26305,28.20438 -22.68866,43.34713 a 26.341553,26.341553 0 0 0 -0.71675,0.45116 c -0.0982,0.0546 -0.19283,0.11642 -0.28743,0.17464 l -0.86956,0.51664 -0.10188,0.0728 c -0.30925,0.17464 -0.6076,0.35656 -0.90594,0.52392 l -0.0291,0.0145 -0.85137,0.48026 a 1.0296491,1.0296491 0 0 1 -0.12734,0.0728 l -0.0437,0.0255 a 0.28379021,0.28379021 0 0 0 -0.091,0.0473 0.21102349,0.21102349 0 0 0 -0.0437,0.0255 l -0.091,0.0437 -0.0473,0.0255 a 1.4553344,1.4553344 0 0 1 -0.0909,0.0509 l -0.0509,0.0291 a 0.63307046,0.63307046 0 0 1 -0.0982,0.0473 l -0.0437,0.0291 -0.2947,0.14553 a 0.1819168,0.1819168 0 0 1 -0.0473,0.0255 4.1404264,4.1404264 0 0 1 -0.11279,0.0582 l -0.0509,0.0291 a 3.7256561,3.7256561 0 0 0 -0.10915,0.0546 l -0.0509,0.0291 a 1.6263362,1.6263362 0 0 1 -0.11643,0.0546 c -0.0145,0.0109 -0.0255,0.0182 -0.0473,0.0255 l -0.12734,0.0728 a 0.06912838,0.06912838 0 0 0 -0.0364,0.0182 l -0.34564,0.16737 -0.0328,0.0182 -0.13098,0.0655 c -0.0182,0.0145 -0.0364,0.0145 -0.0546,0.0218 a 1.4480577,1.4480577 0 0 1 -0.12371,0.0691 l -0.0509,0.0291 -0.13826,0.0655 -0.0437,0.0291 a 4.0967663,4.0967663 0 0 0 -0.16009,0.0728 l -0.0145,0.0145 -0.37475,0.18192 -0.0218,0.0109 c -0.0546,0.0255 -0.10915,0.0546 -0.16372,0.0728 a 0.14553344,0.14553344 0 0 1 -0.0364,0.0255 1.3498227,1.3498227 0 0 1 -0.14553,0.0728 l -0.0509,0.0255 -0.14553,0.0655 -0.04,0.0218 -0.17464,0.091 -0.0146,0.007 -0.38202,0.18919 -0.0291,0.0145 a 9.2304584,9.2304584 0 0 0 -0.16372,0.0728 l -0.0437,0.0291 a 1.1715442,1.1715442 0 0 1 -0.14918,0.0655 1.9574248,1.9574248 0 0 1 -0.0473,0.0291 l -0.14554,0.0618 -0.0473,0.0255 a 1.8482747,1.8482747 0 0 1 -0.16008,0.0728 0.08732006,0.08732006 0 0 1 -0.0255,0.0218 c -0.0655,0.0327 -0.13462,0.0582 -0.19283,0.0946 h -0.004 l -0.18192,0.0873 -0.0691,0.0291 c -0.0327,0.0255 -0.0764,0.04 -0.11642,0.0582 l -0.0255,0.0145 a 250.1356,250.1356 0 0 0 -8.88846,4.6316 c -8.64105,4.78441 -17.29301,9.80532 -27.72412,9.80532 h -0.85865 l -0.33472,-0.0109 a 34.018442,34.018442 0 0 1 -11.19836,-2.14669 25.315542,25.315542 0 0 1 -3.10714,-1.38621 c -0.10915,-0.0582 -0.20738,-0.11642 -0.32017,-0.16736 v -0.007 l -0.007,-0.007 a 0.15281011,0.15281011 0 0 1 -0.0473,-0.0364 c -1.9101,-1.03324 -2.71418,-1.67359 -4.31868,-3.00522 -0.75314,-0.66582 -1.55357,-1.4517 -2.32126,-2.19756 -6.77458,-6.4253 -13.33814,-9.81259 -18.43545,-15.28101 -0.2656,-0.27287 -0.52392,-0.53483 -0.78224,-0.81499 l -0.16009,-0.18191 -0.8259,-0.92414 a 0.46934534,0.46934534 0 0 1 -0.08,-0.0982 32.373914,32.373914 0 0 1 -0.85865,-1.01146 c 0,-0.007 -0.004,-0.0109 -0.0145,-0.0218 a 28.986623,28.986623 0 0 1 -0.86228,-1.0915 c -0.0837,-0.10915 -0.16737,-0.22558 -0.25469,-0.33109 a 0.7676889,0.7676889 0 0 1 -0.0728,-0.0982 c -0.0655,-0.08 -0.11642,-0.16372 -0.18191,-0.2474 -0.0255,-0.0364 -0.0546,-0.0728 -0.0728,-0.10915 a 9.1031167,9.1031167 0 0 1 -0.2183,-0.28379 l -0.0364,-0.0509 -0.24741,-0.34201 -0.0582,-0.091 -0.18556,-0.2656 -0.0728,-0.10187 -0.19283,-0.28743 c -0.0182,-0.0182 -0.0291,-0.0437 -0.0473,-0.0655 l -0.24013,-0.35655 c -0.0182,-0.0146 -0.0218,-0.0364 -0.0328,-0.0546 l -0.20375,-0.30563 -0.0618,-0.0946 -0.18919,-0.29106 a 0.53847373,0.53847373 0 0 1 -0.0473,-0.0764 c -0.16009,-0.24013 -0.30926,-0.48754 -0.46571,-0.74222 l -0.0437,-0.0728 -0.18919,-0.3129 -0.0437,-0.0728 c -0.14917,-0.25468 -0.30198,-0.50937 -0.44752,-0.76769 -0.0109,-0.0182 -0.0291,-0.0364 -0.0364,-0.0546 l -0.18555,-0.33473 -0.0364,-0.0728 a 6.0760211,6.0760211 0 0 1 -0.2183,-0.38202 55.091684,55.091684 0 0 1 -1.86283,-3.57649 c -2.49954,3.96579 -3.88938,7.30942 -5.63942,12.6978 -3.68927,11.24246 -5.47206,24.62062 -3.1508,36.43066 2.79424,14.3496 8.38637,27.57131 19.09399,37.22745 6.96377,6.27249 15.06999,10.11458 24.50783,11.42438 8.49551,1.21156 16.30338,-3.80206 16.30338,-12.91609 0,-6.54901 -5.42476,-12.83605 -5.95595,-19.26863 -0.78952,-9.33234 4.91175,-17.69323 14.54243,-16.7509 4.7262,0.46206 10.24191,3.79842 11.03143,10.70762 0.63307,5.59576 -0.24741,8.80841 -3.2745,14.34232 -3.42367,6.26158 -7.2985,11.25701 -7.13114,16.99103 h -0.0182 c 0,0 0,0.18192 0.0291,0.49482 l 0.0182,0.2183 c 0.0182,0.17464 0.0437,0.38202 0.08,0.61124 0.0218,0.15281 0.0255,0.29834 0.0546,0.44751 0.0255,0.16373 0.0837,0.33473 0.12007,0.50937 0.0364,0.171 0.0728,0.34564 0.1237,0.53483 0.0364,0.15281 0.0728,0.30199 0.11643,0.44388 0.98962,3.44551 3.73657,8.68471 11.52988,10.27466 2.14298,0.4366 5.78496,0.63307 8.64469,0.42205 10.67852,-0.76405 33.30533,-5.73038 49.95436,-37.18379 0,0 34.85889,2.65598 34.85889,-54.86975 l -0.007,0.0364 v -0.0291 l 0.0109,-0.007 a 86.552375,86.552375 0 0 0 -0.13098,-3.87119 85.057019,85.057019 0 0 0 -0.56758,-6.27977 l -0.007,-0.0437 a 60.643784,60.643784 0 0 0 -0.32017,-2.16845 80.207117,80.207117 0 0 0 -0.61852,-3.4928 80.079775,80.079775 0 0 0 -2.72875,-9.87081 c -2.71838,-7.84785 -6.48769,-14.85892 -10.60629,-20.97132 -0.43296,-0.6258 -0.8732,-1.24795 -1.30252,-1.85556 l 0.26923,0.39658 c 0.34929,0.52392 0.87321,1.34619 1.50991,2.46316 2.92159,5.08639 8.13169,16.00867 8.46641,29.59422 0.007,0.42205 0.0146,0.8441 0.0146,1.27342 l 0.007,0.13098 v 0.0255 c -0.0509,9.83442 -3.79842,15.75399 -7.88791,18.61009 -0.7786,0.52392 -2.80516,1.72093 -5.12278,1.76823 -5.26467,-0.08 -5.20282,-2.8379 -5.20282,-2.8379 -0.10892,-14.52424 -2.5466,-30.19819 -7.96772,-43.71825 -3.68564,-9.17588 -8.71018,-16.65994 -14.88444,-23.72195 2.70693,-3.14716 4.64252,-6.26885 5.92321,-9.29959 7.50589,-17.76963 -7.54954,-31.817245 -21.46618,-32.108312 z m -75.04432,62.561189 c -5.71219,0.11642 -11.901,4.85718 -14.3023,14.65158 -3.00527,12.25755 6.07238,20.59298 9.64523,20.57115 3.03437,0 4.42421,-2.32126 4.42421,-2.32126 0.60033,-0.80043 1.05512,-1.76823 1.41168,-2.89611 0.95688,-2.9798 2.58322,-5.67581 5.99598,-10.87135 5.74129,-8.74292 1.98289,-15.97594 -2.58322,-18.1553 a 10.132766,10.136404 0 0 0 -4.59158,-0.98235 z m 42.39389,1.79734 a 10.507514,10.507514 0 0 0 -4.13315,0.74222 c -4.91175,1.94651 -9.33233,9.21954 -3.9476,18.72651 3.19082,5.64306 4.69346,8.56828 5.48661,11.73727 0.33109,1.33891 0.80044,2.47407 1.47353,3.40549 l 0.0982,0.12734 c 0.29834,0.38566 0.63307,0.73858 1.01874,1.03329 0.75313,0.6076 1.85191,1.23703 3.21992,1.27341 h 0.12734 c 3.87847,-0.0364 13.48731,-8.04072 11.2461,-20.76034 -1.89194,-10.78767 -8.44094,-16.15421 -14.58973,-16.28519 z m -45.99585,12.01742 a 3.4455042,3.4455042 0 0 1 3.49645,3.66744 3.3982058,3.3982058 0 0 1 -3.60196,3.15808 3.4018442,3.4018442 0 0 1 -3.15807,-3.60923 3.4600575,3.4600575 0 0 1 3.26358,-3.21993 z m 47.95327,2.79788 a 3.4345892,3.4345892 0 0 1 3.49281,3.6638 3.3909292,3.3909292 0 0 1 -3.59104,3.16536 3.4018442,3.4018442 0 0 1 -3.16535,-3.61287 3.4564192,3.4564192 0 0 1 3.26722,-3.21629 z m -34.30951,30.7403 a 2.0083615,2.0083615 0 0 0 -1.54265,3.31089 c 2.88156,3.3691 7.53499,2.60505 8.41547,6.73456 0.0364,0.18919 0.0982,0.37111 0.17828,0.53483 a 0.13825677,0.13825677 0 0 0 0.0255,0.0437 c 0.0728,0.12734 0.14917,0.24377 0.23649,0.35656 a 2.0083615,2.0083615 0 0 0 1.53902,0.72039 1.9901698,1.9901698 0 0 0 1.81917,-1.16427 1.298886,1.298886 0 0 0 0.10915,-0.31653 c 1.10969,-3.84209 6.35253,-2.99072 9.49605,-5.7413 a 2.2484916,2.2484916 0 0 0 0.55667,-0.66581 2.1502566,2.1502566 0 0 0 0.22921,-0.9205 1.9901698,1.9901698 0 0 0 -1.8701,-1.98653 c -2.17573,-0.10915 -2.73603,0.54211 -9.6707,0.23285 -6.93103,-0.30562 -7.1748,-1.04056 -9.37235,-1.1388 z"
     style="fill:#1a1b21;stroke-width:3.63833594" />
  <path
     id="path12"
     d="m 317.01205,329.32456 a 9.4996953,9.4996953 0 1 0 0,18.99939 9.4996953,9.4996953 0 0 0 0,-18.99939 z m 0,1.67364 a 7.8242416,7.8242416 0 1 1 0,15.64848 7.8224224,7.8224224 0 0 1 0,-15.64484 z m -3.4928,3.1799 a 0.1309801,0.1309801 0 0 0 -0.13098,0.13098 v 9.09221 c 0,0.0728 0.0619,0.13825 0.13098,0.13825 h 1.37529 a 0.1309801,0.1309801 0 0 0 0.13826,-0.13825 v -2.99799 c 0,-0.0728 0.0546,-0.13098 0.12734,-0.13098 h 1.79734 a 0.29106688,0.29106688 0 0 1 0.21102,0.10915 l 2.14662,3.04165 a 0.29106688,0.29106688 0 0 0 0.20739,0.10915 h 1.67363 c 0.0728,0 0.0946,-0.0473 0.0509,-0.10915 l -2.36856,-3.32544 c -0.0437,-0.0546 -0.0218,-0.12007 0.0473,-0.14554 1.24067,-0.38202 2.1066,-1.3098 2.1066,-2.80152 0,-1.83736 -1.32072,-2.97252 -3.47462,-2.97252 z m 1.64089,1.499 h 2.26305 c 1.2152,0 1.93923,0.53483 1.93923,1.56448 0,0.96052 -0.74586,1.5754 -1.92832,1.5754 h -2.27396 a 0.1309801,0.1309801 0 0 1 -0.13098,-0.13098 v -2.87792 a 0.1309801,0.1309801 0 0 1 0.13098,-0.13098 z"
     style="fill:#231f20;stroke-width:3.63833594" />
</svg>
